<svg xmlns="http://www.w3.org/2000/svg" id="favicon" viewBox="0 0 54 54"><style>@media (prefers-color-scheme:dark){.path{fill:#0061a5}}</style><path fill="#152b4d" stroke-width="0" d="M45.7 41.2h-4.2c-.3-.7-.4-1.5-.3-2.2v-5.4h-7.7v7.6h-3.9v-7.6h-4.4c-2 0-2.8 1-2.8 2.9v2.1c0 .9-.1 1.8-.5 2.6h-4.3v-.6c.5 0 .8-.7.8-1.7v-2.6c0-2.3.5-3.7 2.5-4.2-2-.6-3.2-2.4-3.1-4.5 0-3.2 2.1-6.5 7.6-6.5 2.4-.2 4.8 1 6.1 3 1.3-2 3.6-3.2 6-3 4.7 0 7.3 2.9 7.3 6.8v11.4c0 .7.4 1.5.8 1.5v.6-.2zM0 54h54V0C24.2 0 0 24.2 0 54m25.2-29c-2.2 0-3.4 1-3.4 2.9s1.5 2.6 3.1 2.6h4.6v-2.2c0-2.5-2-3.3-4.3-3.3m12.2-.2c-2.22-.07-3.74 1.55-3.8 3.2v2.5h7.7v-2.4c0-2.3-1.8-3.3-3.9-3.3" class="path"/></svg>